<?xml version="1.0" encoding="utf-8"?>
<!-- Generator: Adobe Illustrator 22.1.0, SVG Export Plug-In . SVG Version: 6.00 Build 0)  -->
<svg version="1.1" id="Слой_1" xmlns="http://www.w3.org/2000/svg" xmlns:xlink="http://www.w3.org/1999/xlink" x="0px" y="0px"
	 width="938.2px" height="548.9px" viewBox="0 0 938.2 548.9" style="enable-background:new 0 0 938.2 548.9;" xml:space="preserve"
	>
<style type="text/css">
	.st0{fill:#FFFFFF;}
</style>
<title>zig zags</title>
<g id="Layer_2">
	<g id="Layer_1-2">
		<path class="st0" d="M10.5,559.4c-5.8,0-10.5-4.7-10.5-10.5c0-3,1.3-5.9,3.5-7.9l45.8-40.7c2.2-2,2.4-5.4,0.4-7.6
			c-0.1-0.1-0.2-0.2-0.2-0.2L3.1,446.7C-1,442.6-1.1,436,3,431.9c0.1-0.1,0.3-0.3,0.5-0.4L49.4,390c2.2-2,2.4-5.4,0.4-7.6
			c-0.1-0.1-0.2-0.2-0.2-0.2l-46.2-45c-1.2-1.1-2.1-2.5-2.7-4c-1.5-4-0.4-8.5,2.7-11.5l46-42.2c2.2-2,2.3-5.4,0.3-7.6
			c-0.1-0.1-0.2-0.2-0.2-0.2L3.4,227.6c-1.2-1.1-2.1-2.4-2.7-3.9c-1.5-4-0.5-8.6,2.7-11.5l46.1-42.9c2.2-2,2.3-5.4,0.2-7.6
			c-0.1-0.1-0.2-0.2-0.2-0.2L3.3,117.8c-4.2-4-4.4-10.6-0.4-14.8c0.1-0.1,0.3-0.3,0.4-0.4l46.2-43.6c2.2-2,2.3-5.4,0.2-7.6
			c-0.1-0.1-0.2-0.2-0.2-0.2L3.3,8.1c-4.2-4-4.5-10.6-0.5-14.8C3-6.9,3.2-7.1,3.3-7.2C7.5-11,13.9-10.9,17.9-7l58.3,54.2
			c3.2,2.9,4.2,7.5,2.6,11.5c-0.6,1.5-1.5,2.8-2.7,3.9L30,106.2c-2.2,2-2.3,5.5-0.2,7.6c0.1,0.1,0.1,0.1,0.2,0.2l46.2,43.6
			c1.2,1.1,2.1,2.4,2.7,3.9c1.6,4,0.5,8.6-2.6,11.5L30,216c-2.2,2-2.3,5.4-0.3,7.6c0.1,0.1,0.1,0.2,0.2,0.2l46.3,44.3
			c1.2,1.1,2.1,2.5,2.7,4c1.5,4,0.5,8.6-2.7,11.5L30,325.9c-2.2,2-2.3,5.4-0.3,7.6c0.1,0.1,0.1,0.2,0.2,0.2l46.5,45.1
			c4.2,4,4.3,10.7,0.2,14.8c-0.2,0.2-0.3,0.3-0.5,0.5L30,435.7c-2.2,2-2.4,5.4-0.4,7.6c0.1,0.1,0.1,0.2,0.2,0.2l46.5,45.9
			c3.1,3,4,7.6,2.3,11.6c-0.6,1.5-1.6,2.8-2.8,3.9l-58.4,51.9C15.6,558.5,13.1,559.4,10.5,559.4z"/>
		<path class="st0" d="M71.8,559.4c-5.8,0-10.5-4.7-10.5-10.5c0-3,1.3-5.9,3.5-7.9l45.8-40.7c2.2-2,2.4-5.4,0.4-7.6
			c-0.1-0.1-0.2-0.2-0.2-0.2l-46.4-45.8c-4.1-4.1-4.2-10.7-0.1-14.8c0.1-0.1,0.3-0.3,0.5-0.4l46-41.4c2.2-2,2.4-5.4,0.4-7.6
			c-0.1-0.1-0.2-0.2-0.2-0.2l-46.2-45c-1.2-1.1-2.1-2.5-2.7-4c-1.5-4-0.4-8.5,2.7-11.5l46-42.2c2.2-2,2.3-5.4,0.3-7.6
			c-0.1-0.1-0.2-0.2-0.2-0.2l-46.1-44.2c-1.2-1.1-2.1-2.4-2.7-3.9c-1.5-4-0.5-8.6,2.7-11.5l46.1-42.9c2.2-2,2.3-5.4,0.2-7.6
			c-0.1-0.1-0.2-0.2-0.2-0.2l-46.2-43.6c-4.2-4-4.4-10.6-0.4-14.8c0.1-0.1,0.3-0.3,0.4-0.4l46.2-43.6c2.2-2,2.3-5.4,0.2-7.6
			c-0.1-0.1-0.2-0.2-0.2-0.2L64.7,8.1c-4.2-4-4.5-10.6-0.5-14.8c0.2-0.2,0.3-0.3,0.5-0.5C68.9-11,75.2-10.9,79.3-7l58.3,54.2
			c3.2,2.9,4.2,7.5,2.6,11.5c-0.6,1.5-1.5,2.8-2.7,3.9l-46.2,43.5c-2.2,2-2.3,5.5-0.2,7.6c0.1,0.1,0.1,0.1,0.2,0.2l46.2,43.6
			c1.2,1.1,2.1,2.4,2.7,3.9c1.6,4,0.5,8.6-2.6,11.5L91.3,216c-2.2,2-2.3,5.4-0.3,7.6c0.1,0.1,0.1,0.2,0.2,0.2l46.3,44.3
			c1.2,1.1,2.1,2.5,2.7,4c1.5,4,0.5,8.6-2.7,11.5l-46.1,42.3c-2.2,2-2.3,5.4-0.3,7.6c0.1,0.1,0.1,0.2,0.2,0.2l46.5,45.1
			c4.2,4,4.3,10.7,0.2,14.8c-0.2,0.2-0.3,0.3-0.5,0.5l-46,41.5c-2.2,2-2.4,5.4-0.4,7.6c0.1,0.1,0.1,0.2,0.2,0.2l46.5,45.9
			c3.1,3,4,7.6,2.3,11.6c-0.6,1.5-1.6,2.8-2.8,3.9l-58.4,51.9C76.9,558.5,74.4,559.4,71.8,559.4z"/>
		<path class="st0" d="M133.2,559.4c-5.8,0-10.5-4.7-10.5-10.5c0-3,1.3-5.9,3.5-7.9l45.8-40.7c2.2-2,2.4-5.4,0.4-7.6
			c-0.1-0.1-0.2-0.2-0.2-0.2l-46.4-45.8c-4.1-4.1-4.2-10.7-0.1-14.8c0.1-0.1,0.3-0.3,0.5-0.4l45.9-41.4c2.2-2,2.4-5.4,0.4-7.6
			c-0.1-0.1-0.2-0.2-0.2-0.2l-46.2-45c-1.2-1.1-2.1-2.5-2.7-4c-1.5-4-0.4-8.5,2.7-11.5l46-42.2c2.2-2,2.3-5.4,0.3-7.6
			c-0.1-0.1-0.2-0.2-0.2-0.2L126,227.5c-1.2-1.1-2.1-2.4-2.7-3.9c-1.5-4-0.5-8.5,2.7-11.4l46.1-42.9c2.2-2,2.3-5.4,0.2-7.6
			c-0.1-0.1-0.2-0.2-0.2-0.2L126,117.8c-4.2-4-4.4-10.6-0.4-14.8c0.1-0.1,0.3-0.3,0.4-0.4l46.2-43.6c2.2-2,2.3-5.4,0.2-7.6
			c-0.1-0.1-0.2-0.2-0.2-0.2L126,8.1c-4.2-4-4.5-10.6-0.5-14.8c0.2-0.2,0.3-0.3,0.5-0.5c4.2-3.8,10.5-3.7,14.6,0.2l58.3,54.2
			c3.2,2.9,4.2,7.5,2.6,11.5c-0.6,1.5-1.5,2.8-2.7,3.9l-46.2,43.6c-2.2,2-2.3,5.5-0.2,7.6c0.1,0.1,0.1,0.1,0.2,0.2l46.2,43.6
			c1.2,1.1,2.1,2.4,2.7,3.9c1.6,4,0.5,8.6-2.6,11.5l-46.2,43c-2.2,2-2.3,5.4-0.3,7.6c0.1,0.1,0.1,0.2,0.2,0.2l46.3,44.3
			c1.2,1.1,2.1,2.5,2.7,4c1.5,4,0.5,8.6-2.7,11.5L152.7,326c-2.2,2-2.3,5.4-0.3,7.6c0.1,0.1,0.1,0.2,0.2,0.2l46.4,45.1
			c4.2,4,4.3,10.7,0.2,14.8c-0.2,0.2-0.3,0.3-0.5,0.5l-46,41.5c-2.2,2-2.4,5.4-0.4,7.6c0.1,0.1,0.1,0.2,0.2,0.2l46.5,45.9
			c3.1,3,4,7.6,2.3,11.6c-0.6,1.5-1.6,2.8-2.8,3.9l-58.4,51.9C138.2,558.5,135.7,559.4,133.2,559.4z"/>
		<path class="st0" d="M194.5,559.4c-5.8,0-10.5-4.7-10.5-10.5c0-3,1.3-5.9,3.5-7.9l45.9-40.7c2.2-2,2.4-5.4,0.4-7.6
			c-0.1-0.1-0.2-0.2-0.2-0.2l-46.4-45.8c-4.1-4.1-4.2-10.7-0.1-14.8c0.1-0.1,0.3-0.3,0.5-0.4l45.9-41.4c2.2-2,2.4-5.4,0.4-7.6
			c-0.1-0.1-0.2-0.2-0.2-0.2l-46.2-44.9c-1.2-1.1-2.1-2.5-2.7-4c-1.5-4-0.4-8.5,2.7-11.5l46-42.2c2.2-2,2.3-5.4,0.3-7.6
			c-0.1-0.1-0.2-0.2-0.2-0.2l-46.1-44.2c-1.2-1.1-2.1-2.4-2.7-3.9c-1.5-4-0.5-8.6,2.6-11.5l46.1-42.9c2.2-2,2.3-5.4,0.2-7.6
			c-0.1-0.1-0.2-0.2-0.2-0.2l-46.2-43.6c-4.2-4-4.4-10.6-0.4-14.8c0.1-0.1,0.3-0.3,0.4-0.4l46.3-43.6c2.2-2,2.3-5.4,0.2-7.6
			c-0.1-0.1-0.2-0.2-0.2-0.2L187.4,8.1c-4.2-4-4.5-10.6-0.5-14.8c0.2-0.2,0.3-0.3,0.5-0.5c4.2-3.8,10.5-3.7,14.6,0.2l58.2,54.2
			c3.2,2.9,4.2,7.5,2.6,11.5c-0.6,1.5-1.5,2.8-2.7,3.9l-46.2,43.6c-2.2,2-2.3,5.5-0.2,7.6c0.1,0.1,0.1,0.1,0.2,0.2l46.2,43.6
			c1.2,1.1,2.1,2.4,2.7,3.9c1.6,4,0.5,8.6-2.6,11.5L214,216c-2.2,2-2.3,5.4-0.3,7.6c0.1,0.1,0.1,0.2,0.2,0.2l46.3,44.3
			c1.2,1.1,2.1,2.5,2.7,4c1.5,4,0.5,8.6-2.7,11.5L214,325.9c-2.2,2-2.3,5.4-0.3,7.6c0.1,0.1,0.1,0.2,0.2,0.2l46.5,45.1
			c4.2,4,4.3,10.7,0.2,14.8c-0.2,0.2-0.3,0.3-0.5,0.5l-46,41.5c-2.2,2-2.4,5.4-0.4,7.6c0.1,0.1,0.1,0.2,0.2,0.2l46.5,45.9
			c3.1,3,4,7.6,2.3,11.6c-0.6,1.5-1.6,2.8-2.8,3.9l-58.4,51.9C199.6,558.5,197.1,559.4,194.5,559.4z"/>
		<path class="st0" d="M255.8,559.4c-5.8,0-10.5-4.7-10.5-10.5c0-3,1.3-5.9,3.5-7.9l45.9-40.7c2.2-2,2.4-5.4,0.4-7.6
			c-0.1-0.1-0.2-0.2-0.2-0.2l-46.4-45.8c-4.1-4.1-4.2-10.7-0.1-14.8c0.1-0.1,0.3-0.3,0.5-0.4l45.9-41.4c2.2-2,2.4-5.4,0.4-7.6
			c-0.1-0.1-0.2-0.2-0.2-0.2l-46.2-44.9c-1.2-1.1-2.1-2.5-2.7-4c-1.5-4-0.4-8.5,2.7-11.5l46-42.2c2.2-2,2.3-5.4,0.3-7.6
			c-0.1-0.1-0.2-0.2-0.2-0.2l-46.1-44.2c-1.2-1.1-2.1-2.4-2.7-3.9c-1.5-4-0.5-8.6,2.6-11.5l46.1-42.9c2.2-2,2.3-5.4,0.2-7.6
			c-0.1-0.1-0.2-0.2-0.2-0.2l-46.2-43.6c-4.2-4-4.4-10.6-0.4-14.8c0.1-0.1,0.3-0.3,0.4-0.4l46.2-43.6c2.2-2,2.3-5.4,0.2-7.6
			c-0.1-0.1-0.2-0.2-0.2-0.2L248.7,8.1c-4.2-4-4.5-10.6-0.5-14.8c0.2-0.2,0.3-0.3,0.5-0.5c4.2-3.8,10.5-3.7,14.6,0.2l58.3,54.2
			c3.2,2.9,4.2,7.5,2.6,11.5c-0.6,1.5-1.5,2.8-2.7,3.9l-46.2,43.6c-2.2,2-2.3,5.5-0.2,7.6c0.1,0.1,0.1,0.1,0.2,0.2l46.2,43.6
			c1.2,1.1,2.1,2.4,2.7,3.9c1.6,4,0.5,8.6-2.6,11.5l-46.2,43c-2.2,2-2.3,5.4-0.3,7.6c0.1,0.1,0.1,0.2,0.2,0.2l46.3,44.3
			c1.2,1.1,2.1,2.5,2.7,4c1.5,4,0.5,8.6-2.7,11.5L275.3,326c-2.2,2-2.3,5.4-0.3,7.6c0.1,0.1,0.1,0.2,0.2,0.2l46.5,45.1
			c4.2,4,4.3,10.7,0.2,14.8c-0.2,0.2-0.3,0.3-0.5,0.5l-46,41.5c-2.2,2-2.4,5.4-0.4,7.6c0.1,0.1,0.1,0.2,0.2,0.2l46.5,45.9
			c3.1,3,4,7.6,2.3,11.6c-0.6,1.5-1.6,2.8-2.8,3.9l-58.4,51.9C260.9,558.5,258.4,559.5,255.8,559.4z"/>
		<path class="st0" d="M317.2,559.4c-5.8,0-10.5-4.7-10.5-10.5c0-3,1.3-5.9,3.5-7.9l45.8-40.7c2.2-2,2.4-5.4,0.4-7.6
			c-0.1-0.1-0.2-0.2-0.2-0.2l-46.4-45.8c-4.1-4.1-4.2-10.7-0.1-14.8c0.1-0.1,0.3-0.3,0.5-0.4l45.9-41.4c2.2-2,2.4-5.4,0.4-7.6
			c-0.1-0.1-0.2-0.2-0.2-0.2l-46.2-45c-1.2-1.1-2.1-2.5-2.7-4c-1.5-4-0.4-8.5,2.7-11.5l46-42.2c2.2-2,2.3-5.4,0.3-7.6
			c-0.1-0.1-0.2-0.2-0.2-0.2L310,227.5c-1.2-1.1-2.1-2.4-2.7-3.9c-1.5-4-0.5-8.5,2.7-11.4l46.1-42.9c2.2-2,2.3-5.4,0.2-7.6
			c-0.1-0.1-0.2-0.2-0.2-0.2L310,117.8c-4.2-4-4.4-10.6-0.4-14.8c0.1-0.1,0.3-0.3,0.4-0.4l46.2-43.6c2.2-2,2.3-5.4,0.2-7.6
			c-0.1-0.1-0.2-0.2-0.2-0.2L310,8.1c-4.2-4-4.5-10.6-0.5-14.8c0.2-0.2,0.3-0.3,0.5-0.5c4.2-3.8,10.5-3.7,14.6,0.2l58.3,54.2
			c3.2,2.9,4.2,7.5,2.6,11.5c-0.6,1.5-1.5,2.8-2.7,3.9l-46.2,43.6c-2.2,2-2.3,5.5-0.2,7.6c0.1,0.1,0.1,0.1,0.2,0.2l46.2,43.6
			c1.2,1.1,2.1,2.4,2.7,3.9c1.6,4,0.5,8.6-2.6,11.5l-46.2,43c-2.2,2-2.3,5.4-0.3,7.6c0.1,0.1,0.1,0.2,0.2,0.2l46.3,44.3
			c1.2,1.1,2.1,2.5,2.7,4c1.5,4,0.5,8.6-2.7,11.5L336.7,326c-2.2,2-2.3,5.4-0.3,7.6c0.1,0.1,0.1,0.2,0.2,0.2l46.4,45.1
			c4.2,4,4.3,10.7,0.2,14.8c-0.2,0.2-0.3,0.3-0.5,0.5l-46,41.5c-2.2,2-2.4,5.4-0.4,7.6c0.1,0.1,0.1,0.2,0.2,0.2l46.5,45.9
			c3.1,3,4,7.6,2.3,11.6c-0.6,1.5-1.6,2.8-2.8,3.9l-58.4,51.9C322.2,558.5,319.7,559.4,317.2,559.4z"/>
		<path class="st0" d="M378.5,559.4c-5.8,0-10.5-4.7-10.5-10.5c0-3,1.3-5.9,3.5-7.9l45.9-40.7c2.2-2,2.4-5.4,0.4-7.6
			c-0.1-0.1-0.2-0.2-0.2-0.2l-46.4-45.8c-4.1-4.1-4.2-10.7-0.1-14.8c0.1-0.1,0.3-0.3,0.5-0.4l45.9-41.4c2.2-2,2.4-5.4,0.4-7.6
			c-0.1-0.1-0.2-0.2-0.2-0.2l-46.2-44.9c-1.2-1.1-2.1-2.5-2.7-4c-1.5-4-0.4-8.5,2.7-11.5l46-42.2c2.2-2,2.3-5.4,0.3-7.6
			c-0.1-0.1-0.2-0.2-0.2-0.2l-46.1-44.2c-1.2-1.1-2.1-2.4-2.7-3.9c-1.5-4-0.5-8.6,2.6-11.5l46.1-42.9c2.2-2,2.3-5.4,0.2-7.6
			c-0.1-0.1-0.2-0.2-0.2-0.2l-46.2-43.6c-4.2-4-4.4-10.6-0.4-14.8c0.1-0.1,0.3-0.3,0.4-0.4l46.3-43.6c2.2-2,2.3-5.4,0.2-7.6
			c-0.1-0.1-0.2-0.2-0.2-0.2L371.4,8.1c-4.2-4-4.5-10.6-0.5-14.8c0.2-0.2,0.3-0.3,0.5-0.5c4.2-3.8,10.5-3.7,14.6,0.2l58.2,54.2
			c3.2,2.9,4.2,7.5,2.6,11.5c-0.6,1.5-1.5,2.8-2.7,3.9L398,106.2c-2.2,2-2.3,5.5-0.2,7.6c0.1,0.1,0.1,0.1,0.2,0.2l46.2,43.6
			c1.2,1.1,2.1,2.4,2.7,3.9c1.6,4,0.5,8.6-2.6,11.5L398,216c-2.2,2-2.3,5.4-0.3,7.6c0.1,0.1,0.1,0.2,0.2,0.2l46.3,44.3
			c1.2,1.1,2.1,2.5,2.7,4c1.5,4,0.5,8.6-2.7,11.5L398,325.9c-2.2,2-2.3,5.4-0.3,7.6c0.1,0.1,0.1,0.2,0.2,0.2l46.5,45.1
			c4.2,4,4.3,10.7,0.2,14.8c-0.2,0.2-0.3,0.3-0.5,0.5l-46,41.5c-2.2,2-2.4,5.4-0.4,7.6c0.1,0.1,0.1,0.2,0.2,0.2l46.5,45.9
			c3.1,3,4,7.6,2.3,11.6c-0.6,1.5-1.6,2.8-2.8,3.9l-58.4,51.9C383.6,558.5,381.1,559.4,378.5,559.4z"/>
		<path class="st0" d="M439.8,559.4c-5.8,0-10.5-4.7-10.5-10.5c0-3,1.3-5.9,3.5-7.9l45.9-40.7c2.2-2,2.4-5.4,0.4-7.6
			c-0.1-0.1-0.2-0.2-0.2-0.2l-46.4-45.8c-4.1-4.1-4.2-10.7-0.1-14.8c0.1-0.1,0.3-0.3,0.5-0.4l46-41.4c2.2-2,2.4-5.4,0.4-7.6
			c-0.1-0.1-0.2-0.2-0.2-0.2l-46.2-44.9c-1.2-1.1-2.1-2.5-2.7-4c-1.5-4-0.4-8.5,2.7-11.5l46-42.2c2.2-2,2.3-5.4,0.3-7.6
			c-0.1-0.1-0.2-0.2-0.2-0.2l-46.1-44.2c-1.2-1.1-2.1-2.4-2.7-3.9c-1.5-4-0.5-8.6,2.6-11.5l46.1-42.9c2.2-2,2.3-5.4,0.2-7.6
			c-0.1-0.1-0.2-0.2-0.2-0.2l-46.2-43.6c-4.2-4-4.4-10.6-0.4-14.8c0.1-0.1,0.3-0.3,0.4-0.4l46.2-43.6c2.2-2,2.3-5.4,0.2-7.6
			c-0.1-0.1-0.2-0.2-0.2-0.2L432.7,8.1c-4.2-4-4.5-10.6-0.5-14.8c0.2-0.2,0.3-0.3,0.5-0.5c4.2-3.8,10.5-3.7,14.6,0.2l58.3,54.2
			c3.2,2.9,4.2,7.5,2.6,11.5c-0.6,1.5-1.5,2.8-2.7,3.9l-46.2,43.6c-2.2,2-2.3,5.5-0.2,7.6c0.1,0.1,0.1,0.1,0.2,0.2l46.2,43.6
			c1.2,1.1,2.1,2.4,2.7,3.9c1.6,4,0.5,8.6-2.6,11.5l-46.2,43c-2.2,2-2.3,5.4-0.3,7.6c0.1,0.1,0.1,0.2,0.2,0.2l46.3,44.3
			c1.2,1.1,2.1,2.5,2.7,4c1.5,4,0.5,8.6-2.7,11.5L459.3,326c-2.2,2-2.3,5.4-0.3,7.6c0.1,0.1,0.1,0.2,0.2,0.2l46.5,45.1
			c4.2,4,4.3,10.7,0.2,14.8c-0.2,0.2-0.3,0.3-0.5,0.5l-46,41.5c-2.2,2-2.4,5.4-0.4,7.6c0.1,0.1,0.1,0.2,0.2,0.2l46.5,45.9
			c3.1,3,4,7.6,2.3,11.6c-0.6,1.5-1.6,2.8-2.8,3.9l-58.4,51.9C444.9,558.5,442.4,559.5,439.8,559.4z"/>
		<path class="st0" d="M501.2,559.4c-5.8,0-10.5-4.7-10.5-10.5c0-3,1.3-5.9,3.5-7.9l45.8-40.7c2.2-2,2.4-5.4,0.4-7.6
			c-0.1-0.1-0.2-0.2-0.2-0.2l-46.4-45.8c-4.1-4.1-4.2-10.7-0.1-14.8c0.1-0.1,0.3-0.3,0.5-0.4l45.9-41.4c2.2-2,2.4-5.4,0.4-7.6
			c-0.1-0.1-0.2-0.2-0.2-0.2l-46.2-45c-1.2-1.1-2.1-2.5-2.7-4c-1.5-4-0.4-8.5,2.7-11.5l46-42.2c2.2-2,2.3-5.4,0.3-7.6
			c-0.1-0.1-0.2-0.2-0.2-0.2L494,227.5c-1.2-1.1-2.1-2.4-2.7-3.9c-1.5-4-0.5-8.5,2.7-11.4l46.1-42.9c2.2-2,2.3-5.4,0.2-7.6
			c-0.1-0.1-0.2-0.2-0.2-0.2L494,117.8c-4.2-4-4.4-10.6-0.4-14.8c0.1-0.1,0.3-0.3,0.4-0.4l46.2-43.6c2.2-2,2.3-5.4,0.2-7.6
			c-0.1-0.1-0.2-0.2-0.2-0.2L494,8.1c-4.2-4-4.5-10.6-0.5-14.8c0.2-0.2,0.3-0.3,0.5-0.5c4.2-3.8,10.5-3.7,14.6,0.2l58.3,54.2
			c3.2,2.9,4.2,7.5,2.6,11.5c-0.6,1.5-1.5,2.8-2.7,3.9l-46.2,43.6c-2.2,2-2.3,5.5-0.2,7.6c0.1,0.1,0.1,0.1,0.2,0.2l46.2,43.6
			c1.2,1.1,2.1,2.4,2.7,3.9c1.6,4,0.5,8.6-2.6,11.5l-46.2,43c-2.2,2-2.3,5.4-0.3,7.6c0.1,0.1,0.1,0.2,0.2,0.2l46.3,44.3
			c1.2,1.1,2.1,2.5,2.7,4c1.5,4,0.5,8.6-2.7,11.5L520.7,326c-2.2,2-2.3,5.4-0.3,7.6c0.1,0.1,0.1,0.2,0.2,0.2l46.4,45.1
			c4.2,4,4.3,10.7,0.2,14.8c-0.2,0.2-0.3,0.3-0.5,0.5l-46,41.5c-2.2,2-2.4,5.4-0.4,7.6c0.1,0.1,0.1,0.2,0.2,0.2l46.5,45.9
			c3.1,3,4,7.6,2.3,11.6c-0.6,1.5-1.6,2.8-2.8,3.9l-58.4,51.9C506.2,558.5,503.7,559.4,501.2,559.4z"/>
		<path class="st0" d="M562.5,559.4c-5.8,0-10.5-4.7-10.5-10.5c0-3,1.3-5.9,3.5-7.9l45.8-40.7c2.2-2,2.4-5.4,0.4-7.6
			c-0.1-0.1-0.2-0.2-0.2-0.2l-46.4-45.8c-4.1-4.1-4.2-10.7-0.1-14.8c0.1-0.1,0.3-0.3,0.5-0.4l45.9-41.4c2.2-2,2.4-5.4,0.4-7.6
			c-0.1-0.1-0.2-0.2-0.2-0.2l-46.2-44.9c-1.2-1.1-2.1-2.5-2.7-4c-1.5-4-0.4-8.5,2.7-11.5l46-42.2c2.2-2,2.3-5.4,0.3-7.6
			c-0.1-0.1-0.2-0.2-0.2-0.2l-46.1-44.2c-1.2-1.1-2.1-2.4-2.7-3.9c-1.5-4-0.5-8.6,2.7-11.5l46.1-42.9c2.2-2,2.3-5.4,0.2-7.6
			c-0.1-0.1-0.2-0.2-0.2-0.2l-46.2-43.6c-4.2-4-4.4-10.6-0.4-14.8c0.1-0.1,0.3-0.3,0.4-0.4l46.3-43.6c2.2-2,2.3-5.4,0.2-7.6
			c-0.1-0.1-0.2-0.2-0.2-0.2L555.4,8.1c-4.2-4-4.5-10.6-0.5-14.8c0.2-0.2,0.3-0.3,0.5-0.5c4.2-3.8,10.5-3.7,14.6,0.2l58.2,54.2
			c3.2,2.9,4.2,7.5,2.6,11.5c-0.6,1.5-1.5,2.8-2.7,3.9L582,106.2c-2.2,2-2.3,5.5-0.2,7.6c0.1,0.1,0.1,0.1,0.2,0.2l46.2,43.6
			c1.2,1.1,2.1,2.4,2.7,3.9c1.6,4,0.5,8.6-2.6,11.5L582,216c-2.2,2-2.3,5.4-0.3,7.6c0.1,0.1,0.1,0.2,0.2,0.2l46.3,44.3
			c1.2,1.1,2.1,2.5,2.7,4c1.5,4,0.5,8.6-2.7,11.5L582,325.9c-2.2,2-2.3,5.4-0.3,7.6c0.1,0.1,0.1,0.2,0.2,0.2l46.5,45.1
			c4.2,4,4.3,10.7,0.2,14.8c-0.2,0.2-0.3,0.3-0.5,0.5l-46,41.5c-2.2,2-2.4,5.4-0.4,7.6c0.1,0.1,0.1,0.2,0.2,0.2l46.5,45.9
			c3.1,3,4,7.6,2.3,11.6c-0.6,1.5-1.6,2.8-2.8,3.9l-58.4,51.9C567.6,558.5,565.1,559.4,562.5,559.4z"/>
		<path class="st0" d="M623.8,559.4c-5.8,0-10.5-4.7-10.5-10.5c0-3,1.3-5.9,3.5-7.9l45.8-40.7c2.2-2,2.4-5.4,0.4-7.6
			c-0.1-0.1-0.2-0.2-0.2-0.2l-46.4-45.8c-4.1-4.1-4.2-10.7-0.1-14.8c0.1-0.1,0.3-0.3,0.5-0.4l45.9-41.4c2.2-2,2.4-5.4,0.4-7.6
			c-0.1-0.1-0.2-0.2-0.2-0.2l-46.2-44.9c-1.2-1.1-2.1-2.5-2.7-4c-1.5-4-0.4-8.5,2.7-11.5l46-42.2c2.2-2,2.3-5.4,0.3-7.6
			c-0.1-0.1-0.2-0.2-0.2-0.2l-46.1-44.2c-1.2-1.1-2.1-2.4-2.7-3.9c-1.5-4-0.5-8.6,2.7-11.5l46.1-42.9c2.2-2,2.3-5.4,0.2-7.6
			c-0.1-0.1-0.2-0.2-0.2-0.2l-46.2-43.6c-4.2-4-4.4-10.6-0.4-14.8c0.1-0.1,0.3-0.3,0.4-0.4l46.2-43.6c2.2-2,2.3-5.4,0.2-7.6
			c-0.1-0.1-0.2-0.2-0.2-0.2L616.7,8.1c-4.2-4-4.5-10.6-0.5-14.8c0.2-0.2,0.3-0.3,0.5-0.5c4.2-3.8,10.5-3.7,14.6,0.2l58.3,54.2
			c3.2,2.9,4.2,7.5,2.6,11.5c-0.6,1.5-1.5,2.8-2.7,3.9l-46.2,43.6c-2.2,2-2.3,5.5-0.2,7.6c0.1,0.1,0.1,0.1,0.2,0.2l46.2,43.6
			c1.2,1.1,2.1,2.4,2.7,3.9c1.6,4,0.5,8.6-2.6,11.5l-46.2,43c-2.2,2-2.3,5.4-0.3,7.6c0.1,0.1,0.1,0.2,0.2,0.2l46.3,44.3
			c1.2,1.1,2.1,2.5,2.7,4c1.5,4,0.5,8.6-2.7,11.5L643.3,326c-2.2,2-2.3,5.4-0.3,7.6c0.1,0.1,0.1,0.2,0.2,0.2l46.5,45.1
			c4.2,4,4.3,10.7,0.2,14.8c-0.2,0.2-0.3,0.3-0.5,0.5l-46,41.5c-2.2,2-2.4,5.4-0.4,7.6c0.1,0.1,0.1,0.2,0.2,0.2l46.5,45.9
			c3.1,3,4,7.6,2.3,11.6c-0.6,1.5-1.6,2.8-2.8,3.9l-58.4,51.9C628.9,558.5,626.4,559.5,623.8,559.4z"/>
		<path class="st0" d="M685.2,559.4c-5.8,0-10.5-4.7-10.5-10.5c0-3,1.3-5.9,3.5-7.9l45.8-40.7c2.2-2,2.4-5.4,0.4-7.6
			c-0.1-0.1-0.2-0.2-0.2-0.2l-46.4-45.8c-4.1-4.1-4.2-10.7-0.1-14.8c0.1-0.1,0.3-0.3,0.5-0.4l45.9-41.4c2.2-2,2.4-5.4,0.4-7.6
			c-0.1-0.1-0.2-0.2-0.2-0.2l-46.2-45c-1.2-1.1-2.1-2.5-2.7-4c-1.5-4-0.4-8.5,2.7-11.5l46-42.2c2.2-2,2.3-5.4,0.3-7.6
			c-0.1-0.1-0.2-0.2-0.2-0.2L678,227.5c-1.2-1.1-2.1-2.4-2.7-3.9c-1.5-4-0.5-8.5,2.7-11.4l46.1-42.9c2.2-2,2.3-5.4,0.2-7.6
			c-0.1-0.1-0.2-0.2-0.2-0.2L678,117.8c-4.2-4-4.4-10.6-0.4-14.8c0.1-0.1,0.3-0.3,0.4-0.4l46.2-43.6c2.2-2,2.3-5.4,0.2-7.6
			c-0.1-0.1-0.2-0.2-0.2-0.2L678,8.1c-4.2-4-4.5-10.6-0.5-14.8c0.2-0.2,0.3-0.3,0.5-0.5c4.2-3.8,10.5-3.7,14.6,0.2l58.3,54.2
			c3.2,2.9,4.2,7.5,2.6,11.5c-0.6,1.5-1.5,2.8-2.7,3.9l-46.2,43.6c-2.2,2-2.3,5.5-0.2,7.6c0.1,0.1,0.1,0.1,0.2,0.2l46.2,43.6
			c1.2,1.1,2.1,2.4,2.7,3.9c1.6,4,0.5,8.6-2.6,11.5l-46.2,43c-2.2,2-2.3,5.4-0.3,7.6c0.1,0.1,0.1,0.2,0.2,0.2l46.3,44.3
			c1.2,1.1,2.1,2.5,2.7,4c1.5,4,0.5,8.6-2.7,11.5L704.7,326c-2.2,2-2.3,5.4-0.3,7.6c0.1,0.1,0.1,0.2,0.2,0.2l46.4,45.1
			c4.2,4,4.3,10.7,0.2,14.8c-0.2,0.2-0.3,0.3-0.5,0.5l-46,41.5c-2.2,2-2.4,5.4-0.4,7.6c0.1,0.1,0.1,0.2,0.2,0.2l46.5,45.9
			c3.1,3,4,7.6,2.3,11.6c-0.6,1.5-1.6,2.8-2.8,3.9l-58.4,51.9C690.2,558.5,687.7,559.4,685.2,559.4z"/>
		<path class="st0" d="M746.5,559.4c-5.8,0-10.5-4.7-10.5-10.5c0-3,1.3-5.9,3.5-7.9l45.8-40.7c2.2-2,2.4-5.4,0.4-7.6
			c-0.1-0.1-0.2-0.2-0.2-0.2l-46.4-45.8c-4.1-4.1-4.2-10.7-0.1-14.8c0.1-0.1,0.3-0.3,0.5-0.4l45.9-41.4c2.2-2,2.4-5.4,0.4-7.6
			c-0.1-0.1-0.2-0.2-0.2-0.2l-46.2-44.9c-1.2-1.1-2.1-2.5-2.7-4c-1.5-4-0.4-8.5,2.7-11.5l46-42.2c2.2-2,2.3-5.4,0.3-7.6
			c-0.1-0.1-0.2-0.2-0.2-0.2l-46.1-44.2c-1.2-1.1-2.1-2.4-2.7-3.9c-1.5-4-0.5-8.6,2.7-11.5l46.1-42.9c2.2-2,2.3-5.4,0.2-7.6
			c-0.1-0.1-0.2-0.2-0.2-0.2l-46.2-43.6c-4.2-4-4.4-10.6-0.4-14.8c0.1-0.1,0.3-0.3,0.4-0.4l46.3-43.6c2.2-2,2.3-5.4,0.2-7.6
			c-0.1-0.1-0.2-0.2-0.2-0.2L739.4,8.1c-4.2-4-4.5-10.6-0.5-14.8c0.2-0.2,0.3-0.3,0.5-0.5c4.2-3.8,10.5-3.7,14.6,0.2l58.2,54.2
			c3.2,2.9,4.2,7.5,2.6,11.5c-0.6,1.5-1.5,2.8-2.7,3.9L766,106.2c-2.2,2-2.3,5.5-0.2,7.6c0.1,0.1,0.1,0.1,0.2,0.2l46.2,43.6
			c1.2,1.1,2.1,2.4,2.7,3.9c1.6,4,0.5,8.6-2.6,11.5L766,216c-2.2,2-2.3,5.4-0.3,7.6c0.1,0.1,0.1,0.2,0.2,0.2l46.3,44.3
			c1.2,1.1,2.1,2.5,2.7,4c1.5,4,0.5,8.6-2.7,11.5L766,325.9c-2.2,2-2.3,5.4-0.3,7.6c0.1,0.1,0.1,0.2,0.2,0.2l46.5,45.1
			c4.2,4,4.3,10.7,0.2,14.8c-0.2,0.2-0.3,0.3-0.5,0.5l-46,41.5c-2.2,2-2.4,5.4-0.4,7.6c0.1,0.1,0.1,0.2,0.2,0.2l46.5,45.9
			c3.1,3,4,7.6,2.3,11.6c-0.6,1.5-1.6,2.8-2.8,3.9l-58.4,51.9C751.6,558.5,749.1,559.4,746.5,559.4z"/>
		<path class="st0" d="M807.8,559.4c-5.8,0-10.5-4.7-10.5-10.5c0-3,1.3-5.9,3.5-7.9l45.8-40.7c2.2-2,2.4-5.4,0.4-7.6
			c-0.1-0.1-0.2-0.2-0.2-0.2l-46.4-45.8c-4.1-4.1-4.2-10.7-0.1-14.8c0.1-0.1,0.3-0.3,0.5-0.4l45.9-41.4c2.2-2,2.4-5.4,0.4-7.6
			c-0.1-0.1-0.2-0.2-0.2-0.2l-46.2-44.9c-1.2-1.1-2.1-2.5-2.7-4c-1.5-4-0.4-8.5,2.7-11.5l46-42.2c2.2-2,2.3-5.4,0.3-7.6
			c-0.1-0.1-0.2-0.2-0.2-0.2l-46.1-44.2c-1.2-1.1-2.1-2.4-2.7-3.9c-1.5-4-0.5-8.6,2.7-11.5l46.1-42.9c2.2-2,2.3-5.4,0.2-7.6
			c-0.1-0.1-0.2-0.2-0.2-0.2l-46.2-43.6c-4.2-4-4.4-10.6-0.4-14.8c0.1-0.1,0.3-0.3,0.4-0.4l46.2-43.6c2.2-2,2.3-5.4,0.2-7.6
			c-0.1-0.1-0.2-0.2-0.2-0.2L800.7,8.1c-4.2-4-4.5-10.6-0.5-14.8c0.2-0.2,0.3-0.3,0.5-0.5c4.2-3.8,10.5-3.7,14.6,0.2l58.3,54.2
			c3.2,2.9,4.2,7.5,2.6,11.5c-0.6,1.5-1.5,2.8-2.7,3.9l-46.2,43.6c-2.2,2-2.3,5.5-0.2,7.6c0.1,0.1,0.1,0.1,0.2,0.2l46.2,43.6
			c1.2,1.1,2.1,2.4,2.7,3.9c1.6,4,0.5,8.6-2.6,11.5l-46.2,43c-2.2,2-2.3,5.4-0.3,7.6c0.1,0.1,0.1,0.2,0.2,0.2l46.3,44.3
			c1.2,1.1,2.1,2.5,2.7,4c1.5,4,0.5,8.6-2.7,11.5L827.3,326c-2.2,2-2.3,5.4-0.3,7.6c0.1,0.1,0.1,0.2,0.2,0.2l46.5,45.1
			c4.2,4,4.3,10.7,0.2,14.8c-0.2,0.2-0.3,0.3-0.5,0.5l-46,41.5c-2.2,2-2.4,5.4-0.4,7.6c0.1,0.1,0.1,0.2,0.2,0.2l46.5,45.9
			c3.1,3,4,7.6,2.3,11.6c-0.6,1.5-1.6,2.8-2.8,3.9l-58.4,51.9C812.9,558.5,810.4,559.5,807.8,559.4z"/>
		<path class="st0" d="M869.2,559.4c-5.8,0-10.5-4.7-10.5-10.5c0-3,1.3-5.9,3.5-7.9l45.8-40.7c2.2-2,2.4-5.4,0.4-7.6
			c-0.1-0.1-0.2-0.2-0.2-0.2l-46.4-45.8c-4.1-4.1-4.2-10.7-0.1-14.8c0.1-0.1,0.3-0.3,0.5-0.4l45.9-41.4c2.2-2,2.4-5.4,0.4-7.6
			c-0.1-0.1-0.2-0.2-0.2-0.2l-46.2-45c-1.2-1.1-2.1-2.5-2.7-4c-1.5-4-0.4-8.5,2.7-11.5l46-42.2c2.2-2,2.3-5.4,0.3-7.6
			c-0.1-0.1-0.2-0.2-0.2-0.2L862,227.5c-1.2-1.1-2.1-2.4-2.7-3.9c-1.5-4-0.5-8.5,2.7-11.4l46.1-42.9c2.2-2,2.3-5.4,0.2-7.6
			c-0.1-0.1-0.2-0.2-0.2-0.2L862,117.8c-4.2-4-4.4-10.6-0.4-14.8c0.1-0.1,0.3-0.3,0.4-0.4l46.2-43.6c2.2-2,2.3-5.4,0.2-7.6
			c-0.1-0.1-0.2-0.2-0.2-0.2L862,8.1c-4.2-4-4.5-10.6-0.5-14.8c0.2-0.2,0.3-0.3,0.5-0.5c4.2-3.8,10.5-3.7,14.6,0.2l58.3,54.2
			c3.2,2.9,4.2,7.5,2.6,11.5c-0.6,1.5-1.5,2.8-2.7,3.9l-46.2,43.6c-2.2,2-2.3,5.5-0.2,7.6c0.1,0.1,0.1,0.1,0.2,0.2l46.2,43.6
			c1.2,1.1,2.1,2.4,2.7,3.9c1.6,4,0.5,8.6-2.6,11.5l-46.2,43c-2.2,2-2.3,5.4-0.3,7.6c0.1,0.1,0.1,0.2,0.2,0.2l46.3,44.3
			c1.2,1.1,2.1,2.5,2.7,4c1.5,4,0.5,8.6-2.7,11.5L888.7,326c-2.2,2-2.3,5.4-0.3,7.6c0.1,0.1,0.1,0.2,0.2,0.2l46.4,45.1
			c4.2,4,4.3,10.7,0.2,14.8c-0.2,0.2-0.3,0.3-0.5,0.5l-46,41.5c-2.2,2-2.4,5.4-0.4,7.6c0.1,0.1,0.1,0.2,0.2,0.2l46.5,45.9
			c3.1,3,4,7.6,2.3,11.6c-0.6,1.5-1.6,2.8-2.8,3.9l-58.4,51.9C874.2,558.5,871.7,559.4,869.2,559.4z"/>
	</g>
</g>
</svg>
