<?xml version="1.0" encoding="utf-8"?>
<!-- Generator: Adobe Illustrator 22.1.0, SVG Export Plug-In . SVG Version: 6.00 Build 0)  -->
<svg version="1.1" id="Слой_1" xmlns="http://www.w3.org/2000/svg" xmlns:xlink="http://www.w3.org/1999/xlink" x="0px" y="0px"
	 width="1482.7px" height="578.6px" viewBox="0 0 1482.7 578.6" style="enable-background:new 0 0 1482.7 578.6;"
	 xml:space="preserve">
<style type="text/css">
	.st0{clip-path:url(#SVGID_2_);}
	.st1{fill:#414144;}
	.st2{fill:#404042;}
	.st3{fill:#3A3A3D;}
	.st4{fill:#353538;}
	.st5{fill:#333335;}
	.st6{fill:#313133;}
	.st7{fill:#2E2E30;}
	.st8{fill:#2A2A2B;}
	.st9{fill:#262627;}
	.st10{fill:#252526;}
	.st11{fill:#3C3D3E;}
</style>
<g>
	<defs>
		<rect id="SVGID_1_" width="1482.7" height="578.6"/>
	</defs>
	<clipPath id="SVGID_2_">
		<use xlink:href="#SVGID_1_"  style="overflow:visible;"/>
	</clipPath>
	<g class="st0">
		<g>
			<path class="st1" d="M27.7,578.6L89,522.4c4.1-3.8,4.1-10.2,0.2-14.2L6.3,428.7c-2.2-2-3.8-4.3-4.9-7c-2.9-7.6-0.7-15.5,4.7-20.7
				L89,323.9c4.1-3.8,4.1-10.2,0-14.2L5.9,231.3c-3.8-3.6-5.9-8.5-5.9-13.7c0-5.2,2.2-10.2,5.9-13.7L89,125.6
				c4.1-3.8,4.1-10.2,0-14.2L6.1,34.3c-7.9-7.4-8.1-20,0-27.5C13.5-0.1,25,0.3,32.4,7.1l104.8,97.4c5.6,5.2,7.6,13.1,4.7,20.7
				c-1.1,2.7-2.7,5-4.9,7l-83.1,78.4c-4.1,3.8-4.1,10.2,0,14L137,303c2.2,2,3.8,4.3,4.9,7c2.9,7.6,0.7,15.6-4.7,20.7L54.1,408
				c-4.1,3.8-4.1,10.2-0.2,14l83.1,79.6c2.2,2,3.8,4.5,4.9,7.2c2.9,7.6,0.7,15.6-4.9,20.7L123.4,542L27.7,578.6L27.7,578.6z"/>
		</g>
		<g>
			<path class="st2" d="M201.8,512.1c-0.5-1.4-1.3-2.8-2.4-3.9l-82.9-79.5c-2.2-2-3.8-4.3-4.9-7c-2.9-7.6-0.7-15.5,4.7-20.7
				l82.9-77.1c4.1-3.8,4.1-10.2,0-14.2l-83.1-78.4c-3.8-3.6-5.9-8.5-5.9-13.7c0-5.2,2.2-10.2,5.9-13.7l83.1-78.4
				c4.1-3.8,4.1-10.2,0-14.2l-82.9-77.1c-7.9-7.4-8.1-20,0-27.5c7.4-6.8,18.9-6.5,26.2,0.4l104.8,97.4c5.6,5.2,7.6,13.1,4.7,20.7
				c-1.1,2.7-2.7,5-4.9,7l-83.1,78.4c-4.1,3.8-4.1,10.2,0,14l83.1,78.4c2.2,2,3.8,4.3,4.9,7c2.9,7.6,0.7,15.6-4.7,20.7L164.3,408
				c-4.1,3.8-4.1,10.2-0.2,14l77.9,74.7L201.8,512.1L201.8,512.1z"/>
		</g>
		<g>
			<g>
				<path class="st3" d="M281.8,481.5l-55.1-52.8c-2.2-2-3.8-4.3-4.9-7c-2.9-7.6-0.7-15.5,4.7-20.7l82.9-77.1
					c4.1-3.8,4.1-10.2,0-14.2l-83.1-78.4c-3.8-3.6-5.9-8.5-5.9-13.7c0-5.2,2.2-10.2,5.9-13.7l83.1-78.4c4.1-3.8,4.1-10.2,0-14.2
					l-82.9-77.1c-7.9-7.4-8.1-20,0-27.5c7.4-6.8,18.9-6.5,26.3,0.4l104.8,97.4c5.6,5.2,7.6,13.1,4.7,20.7c-1.1,2.7-2.7,5-4.9,7
					l-83.1,78.4c-4.1,3.8-4.1,10.2,0,14l83.1,78.4c2.2,2,3.8,4.3,4.9,7c2.9,7.6,0.7,15.6-4.7,20.7L274.5,408
					c-4.1,3.8-4.1,10.2-0.2,14l46.5,44.6L281.8,481.5L281.8,481.5z"/>
			</g>
		</g>
		<g>
			<path class="st2" d="M360.7,451.4l-23.6-22.7c-2.2-2-3.8-4.3-4.9-7c-2.9-7.6-0.7-15.5,4.7-20.7l82.9-77.1
				c4.1-3.8,4.1-10.2,0-14.2l-83.1-78.4c-3.8-3.6-5.9-8.5-5.9-13.7c0-5.2,2.2-10.2,5.9-13.7l83.1-78.4c4.1-3.8,4.1-10.2,0-14.2
				l-82.9-77.1c-7.9-7.4-8.1-20,0-27.5c7.4-6.8,18.9-6.5,26.2,0.4L468,104.6c5.6,5.2,7.6,13.1,4.7,20.7c-1.1,2.7-2.7,5-4.9,7
				l-83.1,78.4c-4.1,3.8-4.1,10.2,0,14l83.1,78.4c2.2,2,3.8,4.3,4.9,7c2.9,7.6,0.7,15.6-4.7,20.7L384.9,408
				c-4.1,3.8-4.1,10.2-0.2,14l15,14.4L360.7,451.4L360.7,451.4z"/>
		</g>
		<g>
			<path class="st2" d="M442,420.3c-2.1-7.1,0.1-14.4,5.2-19.3l82.9-77.1c4.1-3.8,4.1-10.2,0-14.2L447,231.3
				c-3.8-3.6-5.9-8.5-5.9-13.7c0-5.2,2.2-10.2,5.9-13.7l83.1-78.4c4.1-3.8,4.1-10.2,0-14.2l-82.9-77.1c-7.9-7.4-8.1-20,0-27.5
				c7.4-6.8,18.9-6.5,26.3,0.4l104.8,97.4c5.6,5.2,7.6,13.1,4.7,20.7c-1.1,2.7-2.7,5-4.9,7L495,210.6c-4.1,3.8-4.1,10.2,0,14
				L578,303c2.2,2,3.8,4.3,4.9,7c2.9,7.6,0.7,15.6-4.7,20.7l-68.4,63.7L442,420.3L442,420.3z"/>
		</g>
		<g>
			<g>
				<path class="st4" d="M602.5,359l37.7-35.1c4.1-3.8,4.1-10.2,0-14.2l-83.1-78.4c-3.8-3.6-5.9-8.5-5.9-13.7
					c0-5.2,2.2-10.2,5.9-13.7l83.1-78.4c4.1-3.8,4.1-10.2,0-14.2l-82.9-77.1c-7.9-7.4-8.1-20,0-27.5c7.4-6.8,18.9-6.5,26.3,0.4
					l104.8,97.4c5.6,5.2,7.6,13.1,4.7,20.7c-1.1,2.7-2.7,5-4.9,7l-83.1,78.4c-4.1,3.8-4.1,10.2,0,14l83.1,78.4c2.2,2,3.8,4.3,4.9,7
					c1.9,4.9,1.6,10.1-0.3,14.5L602.5,359L602.5,359z"/>
			</g>
		</g>
		<g>
			<g>
				<path class="st5" d="M745.1,304.5l-77.6-73.2c-3.8-3.6-5.9-8.5-5.9-13.7c0-5.2,2.2-10.2,5.9-13.7l83.1-78.4
					c4.1-3.8,4.1-10.2,0-14.2l-82.9-77.1c-7.9-7.4-8.1-20,0-27.5c7.4-6.8,18.9-6.5,26.3,0.4l104.8,97.4c5.6,5.2,7.6,13.1,4.7,20.7
					c-1.1,2.7-2.7,5-4.9,7l-83.1,78.4c-4.1,3.8-4.1,10.2,0,14l68.7,64.9L745.1,304.5L745.1,304.5z"/>
			</g>
		</g>
		<g>
			<path class="st6" d="M823.6,274.5l-45.8-43.2c-3.8-3.6-5.9-8.5-5.9-13.7c0-5.2,2.2-10.2,5.9-13.7l83.1-78.4
				c4.1-3.8,4.1-10.2,0-14.2L778,34.3c-7.9-7.4-8.1-20,0-27.5c7.4-6.8,18.9-6.5,26.2,0.4L909,104.6c5.6,5.2,7.6,13.1,4.7,20.7
				c-1.1,2.7-2.7,5-4.9,7l-83.1,78.4c-4.1,3.8-4.1,10.2,0,14l37,34.9L823.6,274.5L823.6,274.5z"/>
		</g>
		<g>
			<g>
				<path class="st7" d="M903.4,244L888,229.5c-3.8-3.6-5.9-8.5-5.9-13.7s2.2-10.2,5.9-13.7l83.1-78.4c4.1-3.8,4.1-10.2,0-14.2
					l-82.9-77.1c-7.9-7.4-8.1-20,0-27.5c7.4-6.8,18.9-6.5,26.3,0.4l104.8,97.4c5.6,5.2,7.6,13.1,4.7,20.7c-1.1,2.7-2.7,5-4.9,7
					L936,208.8c-4.1,3.8-4.1,10.2,0,14l6.6,6.2L903.4,244L903.4,244z"/>
			</g>
		</g>
		<g>
			<path class="st8" d="M994.4,209.3c1-2,2.3-3.8,4-5.3l83.1-78.4c4.1-3.8,4.1-10.2,0-14.2l-82.9-77.1c-7.9-7.4-8.1-20,0-27.5
				c7.4-6.8,18.9-6.5,26.2,0.4l104.8,97.4c5.6,5.2,7.6,13.1,4.7,20.7c-1.1,2.7-2.7,5-4.9,7l-45.3,42.7L994.4,209.3L994.4,209.3z"/>
		</g>
		<g>
			<path class="st9" d="M1176.9,139.6l14.8-14c4.1-3.8,4.1-10.2,0-14.2l-82.9-77.1c-7.9-7.4-8.1-20,0-27.5
				c7.4-6.8,18.9-6.5,26.3,0.4l104.8,97.4c2.6,2.5,4.5,5.5,5.3,8.9L1176.9,139.6L1176.9,139.6z"/>
		</g>
		<g>
			<path class="st10" d="M1287,97.5l-68-63.2c-7.9-7.4-8.1-20,0-27.5c7.4-6.8,18.9-6.5,26.3,0.4l81.1,75.4L1287,97.5L1287,97.5z"/>
		</g>
		<g>
			<path class="st10" d="M1365.2,67.6l-35.8-33.3c-7.9-7.4-8.1-20,0-27.5c7.4-6.8,18.9-6.5,26.2,0.4l48.9,45.5L1365.2,67.6
				L1365.2,67.6z"/>
		</g>
		<g>
			<path class="st11" d="M1443.4,37.7l-3.7-3.5c-7.9-7.4-8.1-20,0-27.5c7.4-6.8,18.9-6.5,26.2,0.4l16.8,15.6L1443.4,37.7
				L1443.4,37.7z"/>
		</g>
	</g>
</g>
</svg>
