<?xml version="1.0" encoding="utf-8"?>
<!-- Generator: Adobe Illustrator 22.1.0, SVG Export Plug-In . SVG Version: 6.00 Build 0)  -->
<svg version="1.1" id="Слой_1" xmlns="http://www.w3.org/2000/svg" xmlns:xlink="http://www.w3.org/1999/xlink" x="0px" y="0px" preserveAspectRatio="none" 
	 width="1281.8px" height="568px" viewBox="0 0 1281.8 568" style="enable-background:new 0 0 1281.8 568;" xml:space="preserve">
<style type="text/css">
	.st0{clip-path:url(#SVGID_2_);}
	.st1{fill:url(#SVGID_3_);}
	.st2{clip-path:url(#SVGID_5_);}
	.st3{fill:#FFFFFF;}
</style>
<g>
	<defs>
		<rect id="SVGID_1_" y="-20.7" width="1418.8" height="604.2"/>
	</defs>
	<clipPath id="SVGID_2_">
		<use xlink:href="#SVGID_1_"  style="overflow:visible;"/>
	</clipPath>
	<g class="st0">
		
			<linearGradient id="SVGID_3_" gradientUnits="userSpaceOnUse" x1="533.5828" y1="485.9328" x2="534.5828" y2="485.9328" gradientTransform="matrix(1280 0 0 -568 -682986 276293.8125)">
			<stop  offset="0" style="stop-color:#464648"/>
			<stop  offset="9.999999e-02" style="stop-color:#424244"/>
			<stop  offset="0.2" style="stop-color:#3F3E40"/>
			<stop  offset="0.3" style="stop-color:#3B3A3B"/>
			<stop  offset="0.4" style="stop-color:#383637"/>
			<stop  offset="0.5" style="stop-color:#343233"/>
			<stop  offset="0.6" style="stop-color:#312E2F"/>
			<stop  offset="0.7" style="stop-color:#2D2A2B"/>
			<stop  offset="0.8" style="stop-color:#2A2627"/>
			<stop  offset="0.9" style="stop-color:#262223"/>
			<stop  offset="1" style="stop-color:#231F1F"/>
		</linearGradient>
		<path class="st1" d="M0,0v568l1280-268V0H0z"/>
		<g>
			<defs>
				<rect id="SVGID_4_" y="-20.7" width="1418.8" height="604.2"/>
			</defs>
			<clipPath id="SVGID_5_">
				<use xlink:href="#SVGID_4_"  style="overflow:visible;"/>
			</clipPath>
			<g class="st2">
				<path class="st3" d="M893.6,479.1c3-2.7,3-7.3,0.2-10.1l-59.2-57.5c-1.5-1.4-2.7-3.1-3.4-5.1c-2-5.3-0.4-11,3.5-14.7l58.9-54
					c2.9-2.7,3-7.3,0.1-10.1l-59-56.6c-1.5-1.4-2.7-3.1-3.4-5c-2-5.3-0.5-11.1,3.4-14.7l59-54.9c2.9-2.7,2.9-7.3,0-10.1l-59.1-55.8
					c-2.7-2.5-4.2-6.1-4.2-9.8c0-3.7,1.5-7.2,4.2-9.8l59.1-55.8c2.9-2.7,2.9-7.3,0-10.1l-59-54.9c-5.7-5.3-5.8-14.2-0.1-19.6
					c5.2-4.9,13.5-4.6,18.7,0.3l74.6,69.4c3.9,3.6,5.4,9.4,3.4,14.7c-0.7,1.9-2,3.6-3.5,5L868.7,116c-2.9,2.7-2.9,7.3,0,10
					l59.1,55.8c1.5,1.4,2.7,3.1,3.5,5.1c2,5.3,0.5,11.1-3.4,14.7l-59.1,55c-2.9,2.7-2.9,7.3-0.1,10l59.2,56.7
					c1.5,1.4,2.7,3.1,3.4,5.1c2,5.4,0.5,11.1-3.5,14.7l-59,54.1c-2.9,2.7-3,7.3-0.1,10l59.5,57.8c2.7,2.6,4.1,6.2,4.1,9.9
					c-0.1,3.7-1.7,7.2-4.4,9.7"/>
				<path class="st3" d="M972.1,479.1c3-2.7,3-7.3,0.2-10.1l-59.2-57.5c-1.5-1.4-2.7-3.1-3.4-5.1c-2-5.3-0.4-11,3.5-14.7l58.9-54
					c2.9-2.7,3-7.3,0.1-10.1l-59-56.6c-1.5-1.4-2.7-3.1-3.4-5c-2-5.3-0.5-11.1,3.4-14.7l59-54.9c2.9-2.7,2.9-7.3,0-10.1l-59.1-55.8
					c-2.7-2.5-4.2-6.1-4.2-9.8c0-3.7,1.5-7.2,4.2-9.8l59.1-55.8c2.9-2.7,2.9-7.3,0-10.1l-59-54.9c-5.7-5.3-5.8-14.2-0.1-19.6
					c5.2-4.9,13.5-4.6,18.7,0.3l74.6,69.4c3.9,3.6,5.4,9.4,3.4,14.7c-0.7,1.9-2,3.6-3.5,5L947.2,116c-2.9,2.7-2.9,7.3,0,10
					l59.1,55.8c1.5,1.4,2.7,3.1,3.5,5.1c2,5.3,0.5,11.1-3.4,14.7l-59.1,55c-2.9,2.7-2.9,7.3-0.1,10l59.2,56.7
					c1.5,1.4,2.7,3.1,3.4,5.1c2,5.4,0.5,11.1-3.5,14.7l-59,54.1c-2.9,2.7-3,7.3-0.1,10l59.5,57.8c2.7,2.6,4.1,6.2,4.1,9.9
					c-0.1,3.7-1.7,7.2-4.4,9.7"/>
				<path class="st3" d="M1050.6,479.1c3-2.7,3-7.3,0.2-10.1l-59.2-57.5c-1.5-1.4-2.7-3.1-3.4-5.1c-2-5.3-0.4-11,3.5-14.7l58.9-54
					c2.9-2.7,3-7.3,0.1-10.1l-59-56.6c-1.5-1.4-2.7-3.1-3.4-5c-2-5.3-0.5-11.1,3.4-14.7l59-54.9c2.9-2.7,2.9-7.3,0-10.1l-59.1-55.8
					c-2.7-2.5-4.2-6.1-4.2-9.8c0-3.7,1.5-7.2,4.2-9.8l59.1-55.8c2.9-2.7,2.9-7.3,0-10.1l-59-54.9c-5.7-5.3-5.8-14.2-0.1-19.6
					c5.2-4.9,13.5-4.6,18.7,0.3l74.6,69.4c3.9,3.6,5.4,9.4,3.4,14.7c-0.7,1.9-2,3.6-3.5,5l-59.1,55.7c-2.9,2.7-2.9,7.3,0,10
					l59.1,55.8c1.5,1.4,2.7,3.1,3.5,5.1c2,5.3,0.5,11.1-3.4,14.7l-59.1,55c-2.9,2.7-2.9,7.3-0.1,10l59.2,56.7
					c1.5,1.4,2.7,3.1,3.4,5.1c2,5.4,0.5,11.1-3.5,14.7l-59,54.1c-2.9,2.7-3,7.3-0.1,10l59.5,57.8c2.7,2.6,4.1,6.2,4.1,9.9
					c-0.1,3.7-1.7,7.2-4.4,9.7"/>
				<path class="st3" d="M1129.1,479.1c3-2.7,3-7.3,0.2-10.1l-59.2-57.5c-1.5-1.4-2.7-3.1-3.4-5.1c-2-5.3-0.4-11,3.5-14.7l58.9-54
					c2.9-2.7,3-7.3,0.1-10.1l-59-56.6c-1.5-1.4-2.7-3.1-3.4-5c-2-5.3-0.5-11.1,3.4-14.7l59-54.9c2.9-2.7,2.9-7.3,0-10.1l-59.1-55.8
					c-2.7-2.5-4.2-6.1-4.2-9.8c0-3.7,1.5-7.2,4.2-9.8l59.1-55.8c2.9-2.7,2.9-7.3,0-10.1l-59-54.9c-5.7-5.3-5.8-14.2-0.1-19.6
					c5.2-4.9,13.5-4.6,18.7,0.3l74.6,69.4c3.9,3.6,5.4,9.4,3.4,14.7c-0.7,1.9-2,3.6-3.5,5l-59.1,55.7c-2.9,2.7-2.9,7.3,0,10
					l59.1,55.8c1.5,1.4,2.7,3.1,3.5,5.1c2,5.3,0.5,11.1-3.4,14.7l-59.1,55c-2.9,2.7-2.9,7.3-0.1,10l59.2,56.7
					c1.5,1.4,2.7,3.1,3.4,5.1c2,5.4,0.5,11.1-3.5,14.7l-59,54.1c-2.9,2.7-3,7.3-0.1,10l59.5,57.8c2.7,2.6,4.1,6.2,4.1,9.9
					c-0.1,3.7-1.7,7.2-4.4,9.7"/>
				<path class="st3" d="M1207.6,479.1c3-2.7,3-7.3,0.2-10.1l-59.2-57.5c-1.5-1.4-2.7-3.1-3.4-5.1c-2-5.3-0.4-11,3.5-14.7l58.9-54
					c2.9-2.7,3-7.3,0.1-10.1l-59-56.6c-1.5-1.4-2.7-3.1-3.4-5c-2-5.3-0.5-11.1,3.4-14.7l59-54.9c2.9-2.7,2.9-7.3,0-10.1l-59.1-55.8
					c-2.7-2.5-4.2-6.1-4.2-9.8c0-3.7,1.5-7.2,4.2-9.8l59.1-55.8c2.9-2.7,2.9-7.3,0-10.1l-59-54.9c-5.7-5.3-5.8-14.2-0.1-19.6
					c5.2-4.9,13.5-4.6,18.7,0.3l74.6,69.4c3.9,3.6,5.4,9.4,3.4,14.7c-0.7,1.9-2,3.6-3.5,5l-59.1,55.7c-2.9,2.7-2.9,7.3,0,10
					l59.1,55.8c1.5,1.4,2.7,3.1,3.5,5.1c2,5.3,0.5,11.1-3.4,14.7l-59.1,55c-2.9,2.7-2.9,7.3-0.1,10l59.2,56.7
					c1.5,1.4,2.7,3.1,3.4,5.1c2,5.4,0.5,11.1-3.5,14.7l-59,54.1c-2.9,2.7-3,7.3-0.1,10l59.5,57.8c2.7,2.6,4.1,6.2,4.1,9.9
					c-0.1,3.7-1.7,7.2-4.4,9.7"/>
				<path class="st3" d="M1286.1,479.1c3-2.7,3-7.3,0.2-10.1l-59.2-57.5c-1.5-1.4-2.7-3.1-3.4-5.1c-2-5.3-0.4-11,3.5-14.7l58.9-54
					c2.9-2.7,3-7.3,0.1-10.1l-59-56.6c-1.5-1.4-2.7-3.1-3.4-5c-2-5.3-0.5-11.1,3.4-14.7l59-54.9c2.9-2.7,2.9-7.3,0-10.1l-59.1-55.8
					c-2.7-2.5-4.2-6.1-4.2-9.8c0-3.7,1.5-7.2,4.2-9.8l59.1-55.8c2.9-2.7,2.9-7.3,0-10.1l-59-54.9c-5.7-5.3-5.8-14.2-0.1-19.6
					c5.2-4.9,13.5-4.6,18.7,0.3l74.6,69.4c3.9,3.6,5.4,9.4,3.4,14.7c-0.7,1.9-2,3.6-3.5,5l-59.1,55.7c-2.9,2.7-2.9,7.3,0,10
					l59.1,55.8c1.5,1.4,2.7,3.1,3.5,5.1c2,5.3,0.5,11.1-3.4,14.7l-59.1,55c-2.9,2.7-2.9,7.3-0.1,10l59.2,56.7
					c1.5,1.4,2.7,3.1,3.4,5.1c2,5.4,0.5,11.1-3.5,14.7l-59,54.1c-2.9,2.7-3,7.3-0.1,10l59.5,57.8c2.7,2.6,4.1,6.2,4.1,9.9
					c-0.1,3.7-1.7,7.2-4.4,9.7"/>
			</g>
		</g>
	</g>
</g>
</svg>
