<?xml version="1.0" encoding="utf-8"?>
<!-- Generator: Adobe Illustrator 22.1.0, SVG Export Plug-In . SVG Version: 6.00 Build 0)  -->
<svg version="1.1" id="Слой_1" xmlns="http://www.w3.org/2000/svg" xmlns:xlink="http://www.w3.org/1999/xlink" x="0px" y="0px"
	 width="456.8px" height="568px" viewBox="0 0 456.8 568" style="enable-background:new 0 0 456.8 568;" xml:space="preserve">
<style type="text/css">
	.st0{clip-path:url(#SVGID_2_);}
	.st1{clip-path:url(#SVGID_4_);}
	.st2{fill:#FFFFFF;}
</style>
<g>
	<g>
		<defs>
			<rect id="SVGID_1_" x="-825" y="-20.7" width="1418.8" height="604.2"/>
		</defs>
		<clipPath id="SVGID_2_">
			<use xlink:href="#SVGID_1_"  style="overflow:visible;"/>
		</clipPath>
		<g class="st0">
			<g>
				<g>
					<defs>
						<rect id="SVGID_3_" x="-825" y="-20.7" width="1418.8" height="604.2"/>
					</defs>
					<clipPath id="SVGID_4_">
						<use xlink:href="#SVGID_3_"  style="overflow:visible;"/>
					</clipPath>
					<g class="st1">
						<path class="st2" d="M68.6,479.1c3-2.7,3-7.3,0.2-10.1L9.6,411.5c-1.5-1.4-2.7-3.1-3.4-5.1c-2-5.3-0.4-11,3.5-14.7l58.9-54
							c2.9-2.7,3-7.3,0.1-10.1L9.7,271c-1.5-1.4-2.7-3.1-3.4-5c-2-5.3-0.5-11.1,3.4-14.7l59-54.9c2.9-2.7,2.9-7.3,0-10.1L9.6,130.5
							c-2.7-2.5-4.2-6.1-4.2-9.8c0-3.7,1.5-7.2,4.2-9.8l59.1-55.8c2.9-2.7,2.9-7.3,0-10.1L9.7-9.9C4-15.2,3.9-24.1,9.6-29.5
							c5.2-4.9,13.5-4.6,18.7,0.3l74.6,69.4c3.9,3.6,5.4,9.4,3.4,14.7c-0.7,1.9-2,3.6-3.5,5L43.7,116c-2.9,2.7-2.9,7.3,0,10
							l59.1,55.8c1.5,1.4,2.7,3.1,3.5,5.1c2,5.3,0.5,11.1-3.4,14.7l-59.1,55c-2.9,2.7-2.9,7.3-0.1,10l59.2,56.7
							c1.5,1.4,2.7,3.1,3.4,5.1c2,5.4,0.5,11.1-3.5,14.7l-59,54.1c-2.9,2.7-3,7.3-0.1,10l59.5,57.8c2.7,2.6,4.1,6.2,4.1,9.9
							c-0.1,3.7-1.7,7.2-4.4,9.7"/>
						<path class="st2" d="M147.1,479.1c3-2.7,3-7.3,0.2-10.1l-59.2-57.5c-1.5-1.4-2.7-3.1-3.4-5.1c-2-5.3-0.4-11,3.5-14.7l58.9-54
							c2.9-2.7,3-7.3,0.1-10.1l-59-56.6c-1.5-1.4-2.7-3.1-3.4-5c-2-5.3-0.5-11.1,3.4-14.7l59-54.9c2.9-2.7,2.9-7.3,0-10.1
							l-59.1-55.8c-2.7-2.5-4.2-6.1-4.2-9.8c0-3.7,1.5-7.2,4.2-9.8l59.1-55.8c2.9-2.7,2.9-7.3,0-10.1l-59-54.9
							c-5.7-5.3-5.8-14.2-0.1-19.6c5.2-4.9,13.5-4.6,18.7,0.3l74.6,69.4c3.9,3.6,5.4,9.4,3.4,14.7c-0.7,1.9-2,3.6-3.5,5L122.2,116
							c-2.9,2.7-2.9,7.3,0,10l59.1,55.8c1.5,1.4,2.7,3.1,3.5,5.1c2,5.3,0.5,11.1-3.4,14.7l-59.1,55c-2.9,2.7-2.9,7.3-0.1,10
							l59.2,56.7c1.5,1.4,2.7,3.1,3.4,5.1c2,5.4,0.5,11.1-3.5,14.7l-59,54.1c-2.9,2.7-3,7.3-0.1,10l59.5,57.8
							c2.7,2.6,4.1,6.2,4.1,9.9c-0.1,3.7-1.7,7.2-4.4,9.7"/>
						<path class="st2" d="M225.6,479.1c3-2.7,3-7.3,0.2-10.1l-59.2-57.5c-1.5-1.4-2.7-3.1-3.4-5.1c-2-5.3-0.4-11,3.5-14.7l58.9-54
							c2.9-2.7,3-7.3,0.1-10.1l-59-56.6c-1.5-1.4-2.7-3.1-3.4-5c-2-5.3-0.5-11.1,3.4-14.7l59-54.9c2.9-2.7,2.9-7.3,0-10.1
							l-59.1-55.8c-2.7-2.5-4.2-6.1-4.2-9.8c0-3.7,1.5-7.2,4.2-9.8l59.1-55.8c2.9-2.7,2.9-7.3,0-10.1l-59-54.9
							c-5.7-5.3-5.8-14.2-0.1-19.6c5.2-4.9,13.5-4.6,18.7,0.3l74.6,69.4c3.9,3.6,5.4,9.4,3.4,14.7c-0.7,1.9-2,3.6-3.5,5l-59.1,55.7
							c-2.9,2.7-2.9,7.3,0,10l59.1,55.8c1.5,1.4,2.7,3.1,3.5,5.1c2,5.3,0.5,11.1-3.4,14.7l-59.1,55c-2.9,2.7-2.9,7.3-0.1,10
							l59.2,56.7c1.5,1.4,2.7,3.1,3.4,5.1c2,5.4,0.5,11.1-3.5,14.7l-59,54.1c-2.9,2.7-3,7.3-0.1,10l59.5,57.8
							c2.7,2.6,4.1,6.2,4.1,9.9c-0.1,3.7-1.7,7.2-4.4,9.7"/>
						<path class="st2" d="M304.1,479.1c3-2.7,3-7.3,0.2-10.1l-59.2-57.5c-1.5-1.4-2.7-3.1-3.4-5.1c-2-5.3-0.4-11,3.5-14.7l58.9-54
							c2.9-2.7,3-7.3,0.1-10.1l-59-56.6c-1.5-1.4-2.7-3.1-3.4-5c-2-5.3-0.5-11.1,3.4-14.7l59-54.9c2.9-2.7,2.9-7.3,0-10.1
							l-59.1-55.8c-2.7-2.5-4.2-6.1-4.2-9.8c0-3.7,1.5-7.2,4.2-9.8l59.1-55.8c2.9-2.7,2.9-7.3,0-10.1l-59-54.9
							c-5.7-5.3-5.8-14.2-0.1-19.6c5.2-4.9,13.5-4.6,18.7,0.3l74.6,69.4c3.9,3.6,5.4,9.4,3.4,14.7c-0.7,1.9-2,3.6-3.5,5l-59.1,55.7
							c-2.9,2.7-2.9,7.3,0,10l59.1,55.8c1.5,1.4,2.7,3.1,3.5,5.1c2,5.3,0.5,11.1-3.4,14.7l-59.1,55c-2.9,2.7-2.9,7.3-0.1,10
							l59.2,56.7c1.5,1.4,2.7,3.1,3.4,5.1c2,5.4,0.5,11.1-3.5,14.7l-59,54.1c-2.9,2.7-3,7.3-0.1,10l59.5,57.8
							c2.7,2.6,4.1,6.2,4.1,9.9c-0.1,3.7-1.7,7.2-4.4,9.7"/>
						<path class="st2" d="M382.6,479.1c3-2.7,3-7.3,0.2-10.1l-59.2-57.5c-1.5-1.4-2.7-3.1-3.4-5.1c-2-5.3-0.4-11,3.5-14.7l58.9-54
							c2.9-2.7,3-7.3,0.1-10.1l-59-56.6c-1.5-1.4-2.7-3.1-3.4-5c-2-5.3-0.5-11.1,3.4-14.7l59-54.9c2.9-2.7,2.9-7.3,0-10.1
							l-59.1-55.8c-2.7-2.5-4.2-6.1-4.2-9.8c0-3.7,1.5-7.2,4.2-9.8l59.1-55.8c2.9-2.7,2.9-7.3,0-10.1l-59-54.9
							c-5.7-5.3-5.8-14.2-0.1-19.6c5.2-4.9,13.5-4.6,18.7,0.3l74.6,69.4c3.9,3.6,5.4,9.4,3.4,14.7c-0.7,1.9-2,3.6-3.5,5l-59.1,55.7
							c-2.9,2.7-2.9,7.3,0,10l59.1,55.8c1.5,1.4,2.7,3.1,3.5,5.1c2,5.3,0.5,11.1-3.4,14.7l-59.1,55c-2.9,2.7-2.9,7.3-0.1,10
							l59.2,56.7c1.5,1.4,2.7,3.1,3.4,5.1c2,5.4,0.5,11.1-3.5,14.7l-59,54.1c-2.9,2.7-3,7.3-0.1,10l59.5,57.8
							c2.7,2.6,4.1,6.2,4.1,9.9c-0.1,3.7-1.7,7.2-4.4,9.7"/>
						<path class="st2" d="M461.1,479.1c3-2.7,3-7.3,0.2-10.1l-59.2-57.5c-1.5-1.4-2.7-3.1-3.4-5.1c-2-5.3-0.4-11,3.5-14.7l58.9-54
							c2.9-2.7,3-7.3,0.1-10.1l-59-56.6c-1.5-1.4-2.7-3.1-3.4-5c-2-5.3-0.5-11.1,3.4-14.7l59-54.9c2.9-2.7,2.9-7.3,0-10.1
							l-59.1-55.8c-2.7-2.5-4.2-6.1-4.2-9.8c0-3.7,1.5-7.2,4.2-9.8l59.1-55.8c2.9-2.7,2.9-7.3,0-10.1l-59-54.9
							c-5.7-5.3-5.8-14.2-0.1-19.6c5.2-4.9,13.5-4.6,18.7,0.3l74.6,69.4c3.9,3.6,5.4,9.4,3.4,14.7c-0.7,1.9-2,3.6-3.5,5l-59.1,55.7
							c-2.9,2.7-2.9,7.3,0,10l59.1,55.8c1.5,1.4,2.7,3.1,3.5,5.1c2,5.3,0.5,11.1-3.4,14.7l-59.1,55c-2.9,2.7-2.9,7.3-0.1,10
							l59.2,56.7c1.5,1.4,2.7,3.1,3.4,5.1c2,5.4,0.5,11.1-3.5,14.7l-59,54.1c-2.9,2.7-3,7.3-0.1,10l59.5,57.8
							c2.7,2.6,4.1,6.2,4.1,9.9c-0.1,3.7-1.7,7.2-4.4,9.7"/>
					</g>
				</g>
			</g>
		</g>
	</g>
</g>
</svg>
