<svg xmlns="http://www.w3.org/2000/svg" width="17" height="17"><path fill="#fff" d="M8.61 1.14C8.71 1.03 8.85 0.99 8.98 0.99C9.12 0.99 9.26 1.03 9.36 1.14L16.83 7.12C17.03 7.32 17.03 7.64 16.83 7.84C16.63 8.04 16.31 8.04 16.11 7.84L15.97 7.73L15.97 16C15.97 16.55 15.52 17 14.97 17L12.98 17L7.99 17L3 17C2.44 17 2 16.55 2 16L2 7.73L1.86 7.84C1.66 8.04 1.34 8.04 1.14 7.84C0.94 7.64 0.94 7.32 1.14 7.12L8.61 1.14ZM7.98 16L9.98 16L9.98 10L7.98 10L7.98 16ZM14.97 6.93L8.98 2.13L3 6.93L3 15.5C3 15.77 3.22 16 3.49 16L6.99 16L6.99 9L10.98 9L10.98 16L14.47 16C14.75 16 14.97 15.77 14.97 15.5L14.97 6.93Z"/></svg>