<svg xmlns="http://www.w3.org/2000/svg" viewBox="0 0 135.8 29.9">
  <linearGradient id="a" x2="66.6695" y1="16.8708" y2="16.8708" gradientUnits="userSpaceOnUse">
    <stop offset=".00637019" stop-color="#b5f"/>
    <stop offset=".442" stop-color="#55a7ff"/>
    <stop offset="1" stop-color="#2affea"/>
  </linearGradient>
  <path fill="url(#a)" d="M4.1 29.9c-.9 0-1.8-.3-2.6-.9-1.7-1.4-2-3.9-.8-5.7L12.3 5.7c.8-1.2 2.1-1.9 3.5-1.9s2.7.7 3.5 1.9l7.3 11c.4.7 1.4.7 1.9 0l7.2-10.9c.5-.8 1.2-1.5 2.2-1.8 1.9-.6 3.8.1 4.8 1.7l7.3 11c.4.7 1.4.7 1.9 0l7.3-11c1.3-2 4.2-2.5 6.1-.9 1.7 1.4 2 3.9.8 5.7L54.4 27.9c-.5.8-1.3 1.5-2.2 1.8-1.9.6-3.8-.1-4.8-1.7l-7.3-11c-.4-.7-1.4-.7-1.9 0L31 28c-.8 1.2-2.1 1.9-3.5 1.9s-2.7-.7-3.5-1.9l-7.3-11c-.4-.7-1.4-.7-1.9 0L7.6 28c-.8 1.3-2.1 1.9-3.5 1.9z"/>
  <path fill="white" d="M96.8 7.2v4.3c0 .2-.2.4-.4.4h-1.9c-.2 0-.4-.2-.4-.4V7.6c0-.4-.1-.6-.3-.8-.2-.2-.5-.3-.8-.3-.3 0-.6.1-.8.3-.1.2-.2.4-.2.8v3.9c0 .2-.2.4-.4.4h-1.9c-.2 0-.4-.2-.4-.4V7.6c0-.4-.1-.6-.3-.8-.2-.2-.5-.3-.8-.3-.3 0-.6.1-.8.3-.2.2-.3.5-.3.8v3.9c0 .2-.2.4-.4.4H85c-.2 0-.4-.2-.4-.4V4.7c0-.2.2-.4.4-.4h1.6c.2 0 .4.2.4.4v.2c.6-.5 1.2-.8 2.1-.8.9 0 1.7.3 2.2 1 .7-.7 1.5-1 2.5-1 .9 0 1.6.3 2.2.8.5.6.8 1.4.8 2.3zM98.6 2.7c-.3-.3-.5-.7-.5-1.1 0-.4.2-.8.5-1.1.3-.3.7-.5 1.1-.5.4 0 .8.2 1.1.5.3.3.5.7.5 1.1 0 .4-.2.8-.5 1.1-.3.3-.7.5-1.1.5-.4-.1-.8-.2-1.1-.5zm-.2 8.8V4.7c0-.2.2-.4.4-.4h1.9c.2 0 .4.2.4.4v6.9c0 .2-.2.4-.4.4h-1.9c-.2-.1-.4-.3-.4-.5zM108.6 4.3h1.6c.2 0 .4.2.4.4V11c0 1.3-.4 2.2-1.1 2.9-.7.7-1.7 1-3 1s-2.5-.4-3.6-1.1c-.2-.1-.2-.4-.1-.5l.9-1.2c.1-.2.4-.2.5-.1.7.4 1.3.7 1.9.7.5 0 .9-.1 1.3-.3.3-.2.5-.6.5-1v-.3c-.5.5-1.1.7-2 .7-1.1 0-1.9-.3-2.6-1-.7-.7-1-1.6-1-2.7s.3-2 1-2.7c.7-.7 1.5-1 2.6-1 1 0 1.8.3 2.2 1v-.7c.1-.3.3-.4.5-.4zm-.6 3.5c0-.5-.1-.9-.4-1.1-.3-.3-.6-.4-1.1-.4-.4 0-.8.1-1.1.4-.3.3-.4.6-.4 1.1 0 .5.1.9.4 1.2.3.3.6.5 1.1.5.4 0 .8-.1 1.1-.4.3-.4.4-.8.4-1.3zM119.8 7.2v4.3c0 .2-.2.4-.4.4h-1.9c-.2 0-.4-.2-.4-.4V7.6c0-.3-.1-.6-.3-.8-.2-.2-.5-.3-.8-.3-.3 0-.6.1-.8.3-.1.2-.2.4-.2.8v3.9c0 .2-.2.4-.4.4h-1.9c-.2 0-.4-.2-.4-.4V.8c0-.2.2-.4.4-.4h1.9c.2 0 .4.2.4.4v4c.5-.5 1.2-.7 2-.7s1.5.3 2.1.9c.5.5.7 1.3.7 2.2zM125.9 9.7h.6c.2 0 .4.2.4.4v1.5c0 .2-.1.3-.3.4-.4.1-.8.1-1.2.1-1.1 0-1.9-.3-2.5-.8-.6-.5-.9-1.3-.9-2.3V6.5h-.8c-.2 0-.4-.2-.4-.4V4.7c0-.2.2-.4.4-.4h.8V2.8c0-.2.2-.4.4-.4h1.9c.2 0 .4.2.4.4v1.4h1.7c.2 0 .4.2.4.4V6c0 .2-.2.4-.4.4h-1.7v2.3c0 .4.1.6.3.8.1.2.4.2.9.2zM133.5 4.3h1.9c.3 0 .5.3.4.5l-3.4 7.5c-.4.9-.9 1.5-1.4 1.9-.5.4-1.2.6-1.9.6-.4 0-.8 0-1.2-.1-.2 0-.3-.2-.3-.4v-1.5c0-.2.2-.4.4-.4h.5c.4 0 .7-.1.9-.2.2-.1.4-.4.6-.7l.1-.3-2.6-6.5c-.1-.3.1-.5.4-.5h2c.2 0 .3.1.4.3l1.4 4 1.5-4c0-.1.2-.2.3-.2z"/>
  <g fill="white">
    <path d="M83.9 21.3h1.9c.3 0 .5.3.3.5l-3.4 6.9c-.1.1-.2.2-.3.2H82c-.1 0-.3-.1-.3-.2l-3.4-6.9c-.1-.2.1-.5.3-.5h1.9c.1 0 .3.1.3.2l1.4 3.1 1.4-3.1c0-.1.2-.2.3-.2zM87.4 19.7c-.3-.3-.5-.6-.5-1.1 0-.4.2-.8.5-1.1.3-.3.7-.4 1.1-.4.4 0 .8.1 1.1.4.3.3.5.7.5 1.1 0 .4-.2.8-.5 1.1-.3.3-.7.4-1.1.4-.4.1-.8-.1-1.1-.4zm-.2 8.7v-6.7c0-.2.2-.4.4-.4h1.8c.2 0 .4.2.4.4v6.7c0 .2-.2.4-.4.4h-1.8c-.2-.1-.4-.2-.4-.4zM91 27.3l.8-1c.1-.2.4-.2.5-.1.6.5 1.2.7 1.8.7.4 0 .7-.1.7-.3 0-.1-.1-.3-.4-.4l-.8-.3c-.8-.3-1.3-.6-1.7-1-.3-.4-.5-.8-.5-1.4 0-.7.3-1.3.8-1.7.5-.4 1.2-.6 2.1-.6 1 0 1.9.3 2.5.8.2.1.2.4 0 .5l-.8 1c-.1.2-.3.2-.5.1-.4-.3-.8-.4-1.3-.4-.3 0-.5.1-.5.3 0 .1.2.3.5.4l.7.3c.8.3 1.3.6 1.7 1 .3.3.5.8.5 1.4 0 .8-.3 1.4-.9 1.8-.6.4-1.3.7-2.2.7-.7 0-1.3-.1-1.8-.4-.5-.2-.8-.5-1.2-.8-.1-.3-.1-.5 0-.6zM98.4 19.7c-.3-.3-.5-.6-.5-1.1 0-.4.2-.8.5-1.1.3-.3.7-.4 1.1-.4.4 0 .8.1 1.1.4.3.3.5.7.5 1.1 0 .4-.2.8-.5 1.1-.3.3-.7.4-1.1.4-.4.1-.8-.1-1.1-.4zm-.2 8.7v-6.7c0-.2.2-.4.4-.4h1.8c.2 0 .4.2.4.4v6.7c0 .2-.2.4-.4.4h-1.8c-.2-.1-.4-.2-.4-.4zM102.1 25c0-1.1.4-2 1.2-2.8.8-.8 1.8-1.2 2.9-1.1 1.1 0 2.1.4 2.9 1.1.8.8 1.2 1.7 1.2 2.8 0 1.1-.4 2-1.2 2.8-.8.8-1.8 1.2-2.9 1.1-1.1 0-2.1-.4-2.9-1.1-.8-.8-1.2-1.7-1.2-2.8zm5.1 1.1c.3-.3.4-.7.4-1.1 0-.4-.1-.8-.4-1.1-.3-.3-.6-.4-1-.4s-.8.1-1 .4c-.3.3-.4.7-.4 1.1 0 .5.1.8.4 1.1.3.3.6.4 1 .4.4.1.7-.1 1-.4zM118.8 24.2v4.2c0 .2-.2.4-.4.4h-1.8c-.2 0-.4-.2-.4-.4v-3.8c0-.3-.1-.6-.3-.8-.2-.2-.5-.3-.8-.3-.3 0-.6.1-.8.3-.2.2-.3.5-.3.8v3.8c0 .2-.2.4-.4.4h-1.8c-.2 0-.4-.2-.4-.4v-6.7c0-.2.2-.4.4-.4h1.6c.2 0 .4.2.4.4v.2c.6-.5 1.3-.8 2.1-.8.9 0 1.6.3 2.1.8.5.6.8 1.3.8 2.3z"/>
  </g>
</svg>
