<?xml version="1.0" encoding="utf-8"?>
<!-- Generator: Adobe Illustrator 22.1.0, SVG Export Plug-In . SVG Version: 6.00 Build 0)  -->
<svg version="1.1" id="Слой_1" xmlns="http://www.w3.org/2000/svg" xmlns:xlink="http://www.w3.org/1999/xlink" x="0px" y="0px"
	 width="66.9px" height="26.1px" viewBox="0 0 66.9 26.1" style="enable-background:new 0 0 66.9 26.1;" xml:space="preserve">
<style type="text/css">
	.st0{fill:url(#SVGID_1_);}
</style>
<linearGradient id="SVGID_1_" gradientUnits="userSpaceOnUse" x1="0" y1="11.3629" x2="66.6695" y2="11.3629" gradientTransform="matrix(1 0 0 -1 0 24.4258)">
	<stop  offset="6.370190e-03" style="stop-color:#BB55FF"/>
	<stop  offset="0.442" style="stop-color:#55A7FF"/>
	<stop  offset="1" style="stop-color:#2AFFEA"/>
</linearGradient>
<path class="st0" d="M4.1,26.1c-0.9,0-1.8-0.3-2.6-0.9c-1.7-1.4-2-3.9-0.8-5.7L12.3,1.9C13.1,0.7,14.4,0,15.8,0s2.7,0.7,3.5,1.9
	l7.3,11c0.4,0.7,1.4,0.7,1.9,0L35.7,2c0.5-0.8,1.2-1.5,2.2-1.8c1.9-0.6,3.8,0.1,4.8,1.7l7.3,11c0.4,0.7,1.4,0.7,1.9,0l7.3-11
	c1.3-2,4.2-2.5,6.1-0.9c1.7,1.4,2,3.9,0.8,5.7L54.4,24.1c-0.5,0.8-1.3,1.5-2.2,1.8c-1.9,0.6-3.8-0.1-4.8-1.7l-7.3-11
	c-0.4-0.7-1.4-0.7-1.9,0l-7.2,11c-0.8,1.2-2.1,1.9-3.5,1.9s-2.7-0.7-3.5-1.9l-7.3-11c-0.4-0.7-1.4-0.7-1.9,0l-7.2,11
	C6.8,25.5,5.5,26.1,4.1,26.1z"/>
</svg>
