<svg xmlns="http://www.w3.org/2000/svg" viewBox="0 0 17 14" width="17" height="14">
	<defs>
		<filter id="flt1"> <feColorMatrix in="SourceGraphic" type="matrix" values="0 0 0 0 0.129   0 0 0 0 0.537   0 0 0 0 0.949   0 0 0 1 0" /> </filter>
	</defs>
	<style>
		tspan { white-space:pre }
		.shp0 { filter: url(#flt1);fill: #2189f2 } 
	</style>
	<path id="26-communication - email envelope" class="shp0" d="M16.97 13.5C16.97 13.77 16.75 14 16.47 14L1.5 14C1.22 14 1 13.77 1 13.5L1 1.5C1 1.49 1 1.49 1 1.49C1 1.48 1.01 1.48 1.01 1.47C1.01 1.35 1.06 1.25 1.13 1.17C1.14 1.16 1.13 1.14 1.14 1.14C1.15 1.12 1.17 1.13 1.18 1.12C1.26 1.06 1.35 1.02 1.45 1.01C1.47 1.01 1.49 1 1.51 1L16.46 1C16.48 1 16.5 1.01 16.52 1.01C16.62 1.02 16.71 1.06 16.79 1.12C16.8 1.13 16.81 1.12 16.82 1.14C16.83 1.14 16.83 1.16 16.84 1.17C16.91 1.25 16.96 1.35 16.96 1.47C16.96 1.48 16.97 1.48 16.97 1.49C16.97 1.49 16.97 1.49 16.97 1.5L16.97 13.5ZM2 12.5C2 12.77 2.22 13 2.5 13L15.47 13C15.75 13 15.97 12.77 15.97 12.5L15.97 2.52L9.35 7.82C9.35 7.83 9.35 7.84 9.34 7.85C9.24 7.95 9.11 7.99 8.98 7.99C8.85 7.99 8.73 7.95 8.63 7.85C8.62 7.84 8.62 7.83 8.62 7.82L2 2.52L2 12.5ZM8.98 6.87L15.06 2L2.91 2L8.98 6.87Z" />
</svg>