<svg xmlns="http://www.w3.org/2000/svg" width="16" height="16"><defs><filter id="flt1"><feColorMatrix in="SourceGraphic" values="0 0 0 0 0.129 0 0 0 0 0.537 0 0 0 0 0.949 0 0 0 1 0"/></filter></defs><path id="33-communication - phone call" fill="#2189f2" d="M0.97 12.87C0.97 12.85 0.97 12.84 0.97 12.83C1.38 12.55 3.67 11.04 4.1 10.77C4.14 10.77 4.25 10.78 4.42 10.87C4.59 10.96 5.1 11.24 5.81 11.64L6.36 11.96L6.88 11.59C7.26 11.32 8.1 10.68 9.38 9.4C10.67 8.12 11.31 7.29 11.58 6.91L11.95 6.39L11.63 5.84C11.33 5.31 10.96 4.66 10.85 4.45C10.76 4.28 10.75 4.17 10.75 4.14C10.75 4.13 10.75 4.13 10.76 4.13C11 3.74 12.55 1.42 12.83 1C12.87 1 12.96 1 13.06 1.08C13.94 1.71 14.86 2.61 14.99 2.96C14.9 4.83 13.25 7.46 10.34 10.36C7.43 13.26 4.8 14.91 2.93 14.99C2.58 14.87 1.67 13.95 1.04 13.08C1 13.02 0.97 12.94 0.97 12.87M0 12.87C0 13.13 0.08 13.41 0.25 13.65C0.27 13.68 1.94 16.02 2.91 15.99C5.64 15.91 8.84 13.26 11.05 11.06C13.26 8.86 15.91 5.67 15.99 2.94L15.99 2.92C15.99 1.97 13.67 0.29 13.65 0.27C13.02 -0.17 12.32 -0.01 12.04 0.39C11.87 0.64 10.09 3.3 9.88 3.63C9.8 3.78 9.75 3.95 9.75 4.14C9.75 4.38 9.83 4.65 9.96 4.92C10.1 5.17 10.55 5.95 10.76 6.33C10.53 6.67 9.92 7.46 8.67 8.7C7.44 9.93 6.64 10.54 6.3 10.78C5.92 10.56 5.14 10.12 4.88 9.98C4.4 9.73 3.91 9.7 3.59 9.91C3.28 10.1 0.62 11.87 0.37 12.05C0.13 12.22 0 12.53 0 12.87L0 12.87Z" filter="url(#flt1)"/></svg>